<svg xmlns="http://www.w3.org/2000/svg" xmlns:xlink="http://www.w3.org/1999/xlink" width="798.828" height="755.15" viewBox="0 0 798.828 755.15">
  <defs>
    <linearGradient id="linear-gradient" x1="0.5" y1="1" x2="0.5" gradientUnits="objectBoundingBox">
      <stop offset="0" stop-color="gray" stop-opacity="0.251"/>
      <stop offset="0.54" stop-color="gray" stop-opacity="0.122"/>
      <stop offset="1" stop-color="gray" stop-opacity="0.102"/>
    </linearGradient>
    <linearGradient id="linear-gradient-2" x1="0.5" y1="1" x2="0.5" y2="0" xlink:href="#linear-gradient"/>
    <linearGradient id="linear-gradient-3" x1="1.115" y1="1.124" x2="1.115" y2="0.124" xlink:href="#linear-gradient"/>
    <linearGradient id="linear-gradient-4" x1="0.5" y1="1" x2="0.5" y2="0" xlink:href="#linear-gradient"/>
    <linearGradient id="linear-gradient-5" x1="1.17" y1="2.05" x2="1.17" y2="1.05" xlink:href="#linear-gradient"/>
    <linearGradient id="linear-gradient-6" x1="0.5" y1="1" x2="0.5" gradientUnits="objectBoundingBox">
      <stop offset="0" stop-opacity="0.122"/>
      <stop offset="0.55" stop-opacity="0.09"/>
      <stop offset="1" stop-opacity="0.02"/>
    </linearGradient>
    <linearGradient id="linear-gradient-7" x1="0.5" y1="1" x2="0.5" y2="0" xlink:href="#linear-gradient"/>
    <linearGradient id="linear-gradient-8" x1="2.85" y1="1.97" x2="2.85" y2="0.969" xlink:href="#linear-gradient-6"/>
    <linearGradient id="linear-gradient-9" x1="0.5" y1="1" x2="0.5" y2="0" xlink:href="#linear-gradient"/>
    <linearGradient id="linear-gradient-10" x1="0.5" y1="1" x2="0.5" y2="0" xlink:href="#linear-gradient"/>
    <linearGradient id="linear-gradient-11" x1="0.5" y1="1" x2="0.5" y2="0" xlink:href="#linear-gradient"/>
    <linearGradient id="linear-gradient-12" x1="0.5" y1="1" x2="0.5" y2="0" xlink:href="#linear-gradient-6"/>
    <linearGradient id="linear-gradient-13" x1="2.688" y1="2.908" x2="2.688" y2="1.864" xlink:href="#linear-gradient"/>
  </defs>
  <g id="undraw_mail_2_tqip" transform="translate(0.008)">
    <path id="Path_1" data-name="Path 1" d="M222,521s-.68-2-1.78-5.72" transform="translate(-198.34 -72.43)" fill="none" stroke="#69f0ae" stroke-miterlimit="10" stroke-width="9"/>
    <path id="Path_2" data-name="Path 2" d="M217,503.68C192.69,410.08,116.9-21.3,876.66,248" transform="translate(-198.34 -72.43)" fill="none" stroke="#69f0ae" stroke-miterlimit="10" stroke-width="9" stroke-dasharray="12.04 12.04"/>
    <path id="Path_3" data-name="Path 3" d="M882.35,250l5.65,2" transform="translate(-198.34 -72.43)" fill="none" stroke="#69f0ae" stroke-miterlimit="10" stroke-width="9"/>
    <path id="Path_4" data-name="Path 4" d="M794.94,582.69a81.21,81.21,0,0,0-161-15.14l-249.59-6.77,2.74,42.88s-35.59,82.12,151.46,104v83H754.79v-138a81.16,81.16,0,0,0,40.15-69.97Z" transform="translate(-198.34 -72.43)" fill="url(#linear-gradient)"/>
    <path id="Path_5" data-name="Path 5" d="M395.66,605.46s-34.08,78.64,145.05,99.62V784.6H747.8V574L393,564.39Z" transform="translate(-198.34 -72.43)" fill="#f6b9ad"/>
    <path id="Path_6" data-name="Path 6" d="M499.16,277.29h0a38.18,38.18,0,0,1-52.5,11.93L335.47,215.95a38.18,38.18,0,0,1-11.93-52.5h0A38.18,38.18,0,0,1,376,151.52l111.19,73.27A38.18,38.18,0,0,1,499.16,277.29Z" transform="translate(-198.34 -72.43)" fill="url(#linear-gradient-2)"/>
    <path id="Path_7" data-name="Path 7" d="M493,273.28h0a35.49,35.49,0,0,1-48.8,11.09L340.81,216.26a35.49,35.49,0,0,1-11.09-48.8h0a35.49,35.49,0,0,1,48.8-11.09l103.37,68.12A35.49,35.49,0,0,1,493,273.28Z" transform="translate(-198.34 -72.43)" fill="#f6b9ad"/>
    <circle id="Ellipse_1" data-name="Ellipse 1" cx="77.77" cy="77.77" r="77.77" transform="translate(432.37 435.17)" fill="#f6b9ad"/>
    <rect id="Rectangle_1" data-name="Rectangle 1" width="322.42" height="581.96" rx="12.25" transform="translate(185.97)" fill="url(#linear-gradient-3)"/>
    <rect id="Rectangle_2" data-name="Rectangle 2" width="313.7" height="566.24" rx="13.64" transform="translate(190.33 7.87)" fill="#fff"/>
    <path id="Path_8" data-name="Path 8" d="M624.33,94.49a25.43,25.43,0,0,1-25.07,21.63H490.92a25.43,25.43,0,0,1-25.06-21.63h-57.4a11.91,11.91,0,0,0-11.92,11.91v514a11.91,11.91,0,0,0,11.91,11.92H682.59a11.91,11.91,0,0,0,11.92-11.91v-514A11.91,11.91,0,0,0,682.6,94.49Z" transform="translate(-198.34 -72.43)" fill="#3f51b5"/>
    <rect id="Rectangle_3" data-name="Rectangle 3" width="69.91" height="4.37" rx="2" transform="translate(312.67 28.84)" fill="#dbdbdb"/>
    <circle id="Ellipse_2" data-name="Ellipse 2" cx="2.62" cy="2.62" r="2.62" transform="translate(394.81 27.97)" fill="#dbdbdb"/>
    <path id="Path_9" data-name="Path 9" d="M758.76,599.08h0c-22.57,5.22-38.06-9.5-43.28-32.06L663.62,374.46a42.24,42.24,0,0,1,31.55-50.51h0a42.24,42.24,0,0,1,50.51,31.55L788,553C793.22,575.6,781.32,593.86,758.76,599.08Z" transform="translate(-198.34 -72.43)" fill="url(#linear-gradient-4)"/>
    <rect id="Rectangle_4" data-name="Rectangle 4" width="70.78" height="282.61" rx="35.39" transform="translate(464.59 269.247) rotate(-13.01)" fill="#f6b9ad"/>
    <rect id="Rectangle_5" data-name="Rectangle 5" width="296" height="69" transform="translate(291.59 686.15)" fill="url(#linear-gradient-5)"/>
    <rect id="Rectangle_6" data-name="Rectangle 6" width="280" height="54" transform="translate(299.59 694.15)" fill="#ff4081"/>
    <path id="Path_10" data-name="Path 10" d="M611.56,254.81l-22.94-17.27,10-13-16.69-13.1L571.5,224.66l-23.59-17.75a5.19,5.19,0,0,0-6.23,0l-62.53,46.55c-2.37,2-4.59,4.29-4.61,9.53h-.07l-.16,71.72h0v3.19a7.82,7.82,0,0,0,7.8,7.84h3.08l59.29.13,62.38.14a7.82,7.82,0,0,0,7.84-7.8l.17-74.78H615C615,258.18,613.93,256.81,611.56,254.81Z" transform="translate(-198.34 -72.43)" fill="url(#linear-gradient-6)"/>
    <path id="Path_11" data-name="Path 11" d="M608.84,264.52c0-4.78-1-6-3.14-7.85L547.63,213a4.74,4.74,0,0,0-5.69,0l-57.05,42.48a10.06,10.06,0,0,0-4.2,8.69h-.06l-.15,65.44h0v2.91a7.14,7.14,0,0,0,7.12,7.15h2.81l54.1.12,56.91.13a7.14,7.14,0,0,0,7.15-7.12l.15-68.23Z" transform="translate(-198.34 -72.43)" fill="url(#linear-gradient-7)"/>
    <path id="Path_12" data-name="Path 12" d="M481.61,264.55H607.44v69.23a4.18,4.18,0,0,1-4.18,4.18h-117a4.61,4.61,0,0,1-4.61-4.61v-68.8Z" transform="translate(-197.67 -73.64) rotate(0.13)" fill="#3f51b5"/>
    <path id="Path_13" data-name="Path 13" d="M481.61,264.55H607.44v69.23a4.18,4.18,0,0,1-4.18,4.18h-117a4.61,4.61,0,0,1-4.61-4.61v-68.8Z" transform="translate(-197.67 -73.64) rotate(0.13)" fill="#fff" opacity="0.2"/>
    <path id="Path_14" data-name="Path 14" d="M481.69,264.41,481.55,328a9.77,9.77,0,0,0,9.75,9.79l106.29.24" transform="translate(-198.34 -72.43)" fill="#f5f5f5"/>
    <path id="Path_15" data-name="Path 15" d="M607.53,264.69l-.14,63.63a9.77,9.77,0,0,1-9.79,9.75l-106.29-.24" transform="translate(-198.34 -72.43)" fill="#fff"/>
    <path id="Path_16" data-name="Path 16" d="M541.93,214.66l-56,41.3a9.75,9.75,0,0,0-4.13,8.45l125.89.4c0-4.65-1-5.87-3.08-7.63l-57.05-42.5A4.69,4.69,0,0,0,541.93,214.66Z" transform="translate(-198.34 -72.43)" fill="#3f51b5"/>
    <path id="Path_17" data-name="Path 17" d="M541.93,214.66l-56,41.3a9.75,9.75,0,0,0-4.13,8.45l125.89.4c0-4.65-1-5.87-3.08-7.63l-57.05-42.5A4.69,4.69,0,0,0,541.93,214.66Z" transform="translate(-198.34 -72.43)" opacity="0.2"/>
    <path id="Path_18" data-name="Path 18" d="M395.56,156.6l-15.23-11.94-36.81,46.62-19.78-15.34-12.39,15.75,28.79,21.99h0l7.14,5.73Z" fill="url(#linear-gradient-8)"/>
    <path id="Path_19" data-name="Path 19" d="M394.44,156.31l-13.8-10.58-36.57,47.69-20.31-15.57-10.59,13.8,27.21,20.84h0l6.98,5.23Z" fill="#fff"/>
    <path id="Path_20" data-name="Path 20" d="M475.28,382.24h0a37.9,37.9,0,0,1-52.11,11.84l-94.5-61.53a37.9,37.9,0,0,1-11.84-52.11h0a37.9,37.9,0,0,1,52.11-11.84l94.5,61.53a37.9,37.9,0,0,1,11.84,52.11Z" transform="translate(-198.34 -72.43)" fill="url(#linear-gradient-9)"/>
    <path id="Path_21" data-name="Path 21" d="M470.26,379h0a35.49,35.49,0,0,1-48.8,11.09l-88.51-57.63a35.49,35.49,0,0,1-11.09-48.8h0a35.49,35.49,0,0,1,48.8-11.09l88.51,57.63A35.49,35.49,0,0,1,470.26,379Z" transform="translate(-198.34 -72.43)" fill="#f6b9ad"/>
    <path id="Path_22" data-name="Path 22" d="M456,483.86h0a37.72,37.72,0,0,1-51.87,11.79L329.55,447.4a37.72,37.72,0,0,1-11.79-51.87h0a37.72,37.72,0,0,1,51.87-11.79L444.2,432A37.72,37.72,0,0,1,456,483.86Z" transform="translate(-198.34 -72.43)" fill="url(#linear-gradient-10)"/>
    <path id="Path_23" data-name="Path 23" d="M437.28,586h0a38.06,38.06,0,0,1-52.34,11.9l-46.19-33.7a38.06,38.06,0,0,1-11.9-52.34h0A38.06,38.06,0,0,1,379.19,500l46.19,33.69A38.06,38.06,0,0,1,437.28,586Z" transform="translate(-198.34 -72.43)" fill="url(#linear-gradient-11)"/>
    <path id="Path_24" data-name="Path 24" d="M433.55,583.49h0a35.49,35.49,0,0,1-48.8,11.09l-43.07-31.42a35.49,35.49,0,0,1-11.09-48.8h0a35.49,35.49,0,0,1,48.8-11.09l43.07,31.42a35.49,35.49,0,0,1,11.09,48.8Z" transform="translate(-198.34 -72.43)" fill="#f6b9ad"/>
    <rect id="Rectangle_7" data-name="Rectangle 7" width="204" height="61" transform="translate(245.18 323.57)" fill="url(#linear-gradient-12)"/>
    <rect id="Rectangle_8" data-name="Rectangle 8" width="190" height="44" transform="translate(252.18 329.57)" fill="#69f0ae"/>
    <path id="Path_25" data-name="Path 25" d="M795.23,214.52l3.59.56-.56-.53h.3l-.47-.16L733,152.66l-15.8,24.93-13.14,22.74,6.09.95-2.7,12.32Z" fill="url(#linear-gradient-13)"/>
    <path id="Path_26" data-name="Path 26" d="M719.93,178.89l-12,20.81,88,14.33-56.68-39.47Z" fill="#3f51b5"/>
    <path id="Path_27" data-name="Path 27" d="M719.93,178.89l-12,20.81,88,14.33-56.68-39.47Z" opacity="0.2"/>
    <path id="Path_28" data-name="Path 28" d="M734.38,156.09l61.55,57.94-76-35.14Z" fill="#3f51b5"/>
    <path id="Path_29" data-name="Path 29" d="M711.17,211.93l84.52,1.61-78.9-28.02Z" fill="#3f51b5"/>
    <path id="Path_30" data-name="Path 30" d="M451.9,481.25h0a35.49,35.49,0,0,1-48.8,11.09l-70.16-45.4a35.49,35.49,0,0,1-11.09-48.8h0A35.49,35.49,0,0,1,370.65,387l70.16,45.4a35.49,35.49,0,0,1,11.09,48.85Z" transform="translate(-198.34 -72.43)" fill="#f6b9ad"/>
  </g>
</svg>
