<svg id="undraw_wallet_aym5" xmlns="http://www.w3.org/2000/svg" xmlns:xlink="http://www.w3.org/1999/xlink" width="1049.58" height="678.59" viewBox="0 0 1049.58 678.59">
  <defs>
    <linearGradient id="linear-gradient" x1="0.5" y1="1" x2="0.5" gradientUnits="objectBoundingBox">
      <stop offset="0" stop-color="gray" stop-opacity="0.251"/>
      <stop offset="0.54" stop-color="gray" stop-opacity="0.122"/>
      <stop offset="1" stop-color="gray" stop-opacity="0.102"/>
    </linearGradient>
  </defs>
  <rect id="Rectangle_1" data-name="Rectangle 1" width="1049.58" height="7.67" transform="translate(0 670.92)" fill="#85848b"/>
  <path id="Path_1" data-name="Path 1" d="M916,653.72c0,5.9-34.39,23.1-75.24,23.1s-72.68-17.2-72.68-23.1,33.11-4,74-4S916,647.81,916,653.72Z" transform="translate(-84.46 -118.23)" fill="#504f60"/>
  <path id="Path_2" data-name="Path 2" d="M916,653.72c0,5.9-34.39,23.1-75.24,23.1s-72.68-17.2-72.68-23.1" transform="translate(-84.46 -118.23)" opacity="0.2"/>
  <path id="Path_3" data-name="Path 3" d="M504.61,545.46c6.63.85,13.51,1.39,19.86-.67,1-.31,2.1-1,2-2a2.421,2.421,0,0,0-.45-1,61.771,61.771,0,0,1-6-11.43,1,1,0,0,0-.37-.52.94.94,0,0,0-.64,0c-2.93.77-5.46,2.66-8.37,3.47a11.9,11.9,0,0,1-4.56.34c-1.32-.15-3.12-1.24-4.32-1.1C502.44,536.92,504.1,541,504.61,545.46Z" transform="translate(-84.46 -118.23)" fill="#3f51b5"/>
  <path id="Path_4" data-name="Path 4" d="M630,534.39c4.37-3,8.9-6.15,11.48-10.78a1.871,1.871,0,0,0,.31-.93,1.921,1.921,0,0,0-.37-.9,37.16,37.16,0,0,0-9.33-10.07,27.211,27.211,0,0,0-5.2,4.8c-1.1,1.16-4.14,3-4.17,4.77,0,1,1.16,2.16,1.7,3,.73,1.08,1.42,2.18,2.08,3.3C626.88,528.13,630.35,534.17,630,534.39Z" transform="translate(-84.46 -118.23)" fill="#3f51b5"/>
  <path id="Path_5" data-name="Path 5" d="M530.6,558.85a4.45,4.45,0,0,1-.8,2.9,3.93,3.93,0,0,1-1.68,1c-9.27,3.32-20-.82-29.25,2.45-1.9.67-3.7,1.64-5.61,2.28a30.524,30.524,0,0,1-7,1.24c-3.27.31-6.56.51-9.84.6a23.662,23.662,0,0,1-7.42-.65,8.91,8.91,0,0,1-5.69-4.51,4.33,4.33,0,0,1-.28-3.21,3.46,3.46,0,0,1,.61-1,8.771,8.771,0,0,1,2.18-1.77l3.41-2.2a22.894,22.894,0,0,1,5.17-2.74c1.35-.44,2.78-.63,4.15-1,4.79-1.4,8.45-5.2,11.85-8.85l4.64-4.95a4.67,4.67,0,0,1,1.61-1.29,4.461,4.461,0,0,1,2-.19,26.739,26.739,0,0,1,12.65,4.24,16.392,16.392,0,0,0,3.12,1.84c2.72,1.06,6.21.26,8.72-1.08,1.19-.64.93-1,1.43-2.14s1.72-1.87,2.78-.83a2.94,2.94,0,0,1,.66,1.26c1,3.3.62,6.85.62,10.31a4.541,4.541,0,0,0,.2,1.6,9.052,9.052,0,0,0,.91,1.48,3.368,3.368,0,0,1,.19.38,10.17,10.17,0,0,1,.67,4.83Z" transform="translate(-84.46 -118.23)" fill="#514e7f"/>
  <path id="Path_6" data-name="Path 6" d="M530.6,558.85a4.45,4.45,0,0,1-.8,2.9,3.93,3.93,0,0,1-1.68,1c-9.27,3.32-20-.82-29.25,2.45-1.9.67-3.7,1.64-5.61,2.28a30.524,30.524,0,0,1-7,1.24c-3.27.31-6.56.51-9.84.6a23.662,23.662,0,0,1-7.42-.65,8.91,8.91,0,0,1-5.69-4.51,4.33,4.33,0,0,1-.28-3.21,3.46,3.46,0,0,1,.61-1c.54,1.13.93,2.63,1.27,3.17a6.49,6.49,0,0,0,4.34,3.13,10.78,10.78,0,0,0,4-.51c8.4-2.08,17.33-2.11,25.4-5.26,2.77-1.09,5.41-2.54,8.32-3.2s6-.48,9-.73c4.74-.38,9.33-1.81,14-2.56a10.17,10.17,0,0,1,.63,4.86Z" transform="translate(-84.46 -118.23)" fill="#464353"/>
  <path id="Path_7" data-name="Path 7" d="M651.23,533.78c-.44,3.52-2.67,6.55-5.12,9.12s-5.22,4.88-7.17,7.84c-2.4,3.67-3.48,8.22-6.6,11.32a18.1,18.1,0,0,1-4,2.85,27.91,27.91,0,0,1-5.15,2.37c-4.66,1.49-9.68,1.15-14.55.79a13.089,13.089,0,0,1-4.62-.89A13.919,13.919,0,0,1,602.1,566a9.17,9.17,0,0,1-3-3,3,3,0,0,1-.29-2.18,5.12,5.12,0,0,1,1.39-2.12,33,33,0,0,1,3.52-3.17,21.071,21.071,0,0,0,4.58-4,12.919,12.919,0,0,0,1.77-4,35.479,35.479,0,0,0,1.29-7.65,24.247,24.247,0,0,1,.53-5.12c.74-2.64,2.7-5,2.48-7.73a1.93,1.93,0,0,1,.1-1.17,1.63,1.63,0,0,1,.92-.57,16.3,16.3,0,0,1,4.78-1.11,5.57,5.57,0,0,1,4.44,1.74c.68.82,1.13,2,2.13,2.32a3.379,3.379,0,0,0,1.52.06c2.46-.25,5.06-.56,7-2.15a8.73,8.73,0,0,0,2.9-6.37c0-.91-.41-1.86,1-2,1.06-.14,1.9,1,2.44,1.7,1.95,2.61,3.95,5.34,4.68,8.52a2.511,2.511,0,0,1,.89-.17,3.87,3.87,0,0,1,3.19,1.63,6.35,6.35,0,0,1,.87,4.32Z" transform="translate(-84.46 -118.23)" fill="#514e7f"/>
  <path id="Path_8" data-name="Path 8" d="M651.23,533.78c-.44,3.52-2.67,6.55-5.12,9.12s-5.22,4.88-7.17,7.84c-2.4,3.67-3.48,8.22-6.6,11.32a18.1,18.1,0,0,1-4,2.85,27.91,27.91,0,0,1-5.15,2.37c-4.66,1.49-9.68,1.15-14.55.79a13.089,13.089,0,0,1-4.62-.89A13.919,13.919,0,0,1,602.1,566a9.17,9.17,0,0,1-3-3,7.311,7.311,0,0,1,3-.72c2.16.12,3.74,2.16,5.81,2.79,2.95.89,5.89-1.19,8.88-1.9,1.95-.46,4-.34,5.93-1a14.66,14.66,0,0,0,4.39-2.66,22.348,22.348,0,0,0,4.69-4.52,29.047,29.047,0,0,0,2.75-5.49,78.5,78.5,0,0,1,5.56-10.64,7.52,7.52,0,0,1,1.13-1.48,15.75,15.75,0,0,1,1.53-1.11c2-1.51,2.83-4,3.53-6.44a11.273,11.273,0,0,1,.79-2.15,3.87,3.87,0,0,1,3.19,1.63A6.35,6.35,0,0,1,651.23,533.78Z" transform="translate(-84.46 -118.23)" fill="#464353"/>
  <path id="Path_13" data-name="Path 13" d="M556.62,320.79" transform="translate(-84.46 -118.23)" fill="#464353"/>
  <path id="Path_15" data-name="Path 15" d="M488.21,373.74c1.32,5-.59,10.26-2.15,15.21a117.884,117.884,0,0,0-4.78,22.9,19.819,19.819,0,0,1-1.18,5.79c-.74,1.67-2,3.08-2.86,4.67-2.36,4.18-2.3,9.28-1.79,14.06.34,3.15.85,6.29,1.48,9.39.77,3.79,1.72,7.75.61,11.45,1.86-.41,3.12,2,3,3.89s-.73,4,.18,5.63c2.3.84,2.32,4,2.25,6.45a54.249,54.249,0,0,0,1.6,12.6q5.22,25.1,11.08,50.06c8.45,2.62,18.32,5.35,26.38,1.72,1.5-.67,3-1.74,3.34-3.36a5.861,5.861,0,0,0-.32-2.58l-3.82-13.9c-.93-3.36-1.86-6.83-1.37-10.28.37-2.57,1.49-5.34.23-7.61-.43-.78-1.11-1.39-1.61-2.13-2-2.93-.95-6.85-.79-10.4a8.241,8.241,0,0,0-.16-2.38,11.883,11.883,0,0,0-1.14-2.61,39.92,39.92,0,0,1-4.4-19.86,4.91,4.91,0,0,0-.35-2.59,8.372,8.372,0,0,1-.65-1.06,2.9,2.9,0,0,1,.21-1.91,17.5,17.5,0,0,1-3.08-3,4.31,4.31,0,0,0,.74-6.74,2.25,2.25,0,0,0,1.07-3.87c-.49-.34-1.14-.49-1.49-1-.54-.74-.1-1.77.34-2.56l2.33-4.21c1.74-3.13,2.13-7,4-10,2.68-4.37,4.43-9.24,6.16-14.06L528,392.88l4.53,3.93a14.32,14.32,0,0,1,3.72,4.24,18.3,18.3,0,0,1,1.21,5.08c1.66,10.08,8,18.82,10.35,28.75.52,2.21.87,4.53,2.14,6.42a14,14,0,0,1,1.22,1.84,9.758,9.758,0,0,1,.51,3.05,14.23,14.23,0,0,0,6,10.2c2.23,1.53,5,2.58,6.21,5a9.32,9.32,0,0,0,1,2.13c1.08,1.3,3.41,1.45,3.87,3.08.26.91-.22,2,.29,2.8a2.65,2.65,0,0,0,1.11.83l6.51,3.25c7.28,3.64,11,12,16.37,18.09a39,39,0,0,1,4.9,6.48c2.32,4.15,3.39,9.36,7.31,12a11.06,11.06,0,0,1,2.84,2.11c1.23,1.62.78,3.89.89,5.93s1.67,4.47,3.61,3.85a14.23,14.23,0,0,0,0,7.55,38,38,0,0,0,23.06-9.34c1.9-1.66,3.73-3.78,3.75-6.3a2.26,2.26,0,0,0-.28-1.25,3.57,3.57,0,0,0-1.47-1.11c-6.09-3.3-7.92-10.95-11-17.16-2.69-5.48-6.67-10.2-10-15.29-7.24-10.95-12.18-24.2-23.13-31.43-2.41-1.59-5.21-3-6.42-5.63-.67-1.47-.75-3.15-1.28-4.67s-1.8-3-3.42-3c.9-2.2.72-4.88.78-7.26a9.169,9.169,0,0,0-.36-3.13,15.226,15.226,0,0,0-1.61-3.1,29.74,29.74,0,0,1-4.12-16c.08-2.89.59-5.87-.28-8.63-.44-1.39-1.21-2.66-1.74-4a25,25,0,0,1-1.25-7.52l-.6-9.61a47.286,47.286,0,0,0-1.24-9.5c-2-7.46-4-38.71-10.85-42.23s-18.62,20.53-26.33,21a34.287,34.287,0,0,0-10,1.93c-5.13,1.92-9.43,5.5-13.62,9L497,367.17C494,369.64,491.52,372,488.21,373.74Z" transform="translate(-84.46 -118.23)" fill="#464353"/>
  <path id="Path_20" data-name="Path 20" d="M711.91,399.81V387.39a34.48,34.48,0,0,0-34.48-34.47H186.94a34.48,34.48,0,0,0-34.48,34.47v22.9Z" transform="translate(-84.46 -118.23)" fill="#33323d"/>
  <path id="Path_21" data-name="Path 21" d="M323.39,338.36s-1.4,86.86,14,115.44,22,152.91,22,152.91,161.44,16.7,273.94-20S985.21,535,985.21,535L944.87,263.11S745.58,250.33,632.21,304.4,323.39,338.36,323.39,338.36Z" transform="translate(-84.46 -118.23)" fill="#8dd070"/>
  <path id="Path_22" data-name="Path 22" d="M323.39,338.36s-1.4,86.86,14,115.44,22,152.91,22,152.91,161.44,16.7,273.94-20S985.21,535,985.21,535L944.87,263.11S745.58,250.33,632.21,304.4,323.39,338.36,323.39,338.36Z" transform="translate(-84.46 -118.23)" opacity="0.1"/>
  <path id="Path_23" data-name="Path 23" d="M359.12,370.09s-5.05,71.67,7.62,94.57S380,589.79,380,589.79s145.29,6.74,248.64-28.44,320.53-58,320.53-58L924.49,281s-179.7-1.85-284.58,47.67S359.12,370.09,359.12,370.09Z" transform="translate(-84.46 -118.23)" fill="#8dd070"/>
  <ellipse id="Ellipse_2" data-name="Ellipse 2" cx="37.72" cy="80.9" rx="37.72" ry="80.9" transform="translate(496.423 246.513) rotate(-7.1)" opacity="0.1"/>
  <path id="Path_24" data-name="Path 24" d="M835.61,130.66S642,179.66,550.7,265.91,267.2,393,267.2,393s25.32,83.09,48.74,105.57,67.84,138.8,67.84,138.8,158.77-33.66,254.57-103.14S957.42,377,957.42,377Z" transform="translate(-84.46 -118.23)" opacity="0.2"/>
  <path id="Path_25" data-name="Path 25" d="M264.29,380.56S289.6,463.66,313,486.14s67.84,138.79,67.84,138.79,158.79-33.65,254.6-103.13S954.5,364.6,954.5,364.6L832.69,118.23s-193.6,49-284.9,135.25S264.29,380.56,264.29,380.56Z" transform="translate(-84.46 -118.23)" fill="#8dd070"/>
  <path id="Path_26" data-name="Path 26" d="M264.29,380.56S289.6,463.66,313,486.14s67.84,138.79,67.84,138.79,158.79-33.65,254.6-103.13S954.5,364.6,954.5,364.6L832.69,118.23s-193.6,49-284.9,135.25S264.29,380.56,264.29,380.56Z" transform="translate(-84.46 -118.23)" opacity="0.1"/>
  <path id="Path_27" data-name="Path 27" d="M308,399.8s17.19,69.77,36.28,87.67,51,115,51,115,140.34-38.18,227.91-103.38S910.48,345.62,910.48,345.62L818.77,141.5S647.18,194.87,562.55,274.19,308,399.8,308,399.8Z" transform="translate(-84.46 -118.23)" fill="#8dd070"/>
  <ellipse id="Ellipse_3" data-name="Ellipse 3" cx="37.72" cy="80.9" rx="37.72" ry="80.9" transform="translate(432.995 208.428) rotate(-24.97)" opacity="0.1"/>
  <path id="Path_28" data-name="Path 28" d="M725.15,412V757a29.83,29.83,0,0,1-29.84,29.83h-513A29.83,29.83,0,0,1,152.49,757V377.22c14.7,5.46,14.7,5.46,29.82,5h513A29.84,29.84,0,0,1,725.15,412Z" transform="translate(-84.46 -118.23)" opacity="0.1"/>
  <path id="Path_29" data-name="Path 29" d="M725.15,416.39v345a29.84,29.84,0,0,1-29.84,29.83h-513a29.83,29.83,0,0,1-29.82-29.83V381.6c14.7,5.45,14.7,5.45,29.82,5h513a29.84,29.84,0,0,1,29.84,29.79Z" transform="translate(-84.46 -118.23)" fill="#504f60"/>
  <path id="Path_30" data-name="Path 30" d="M723.69,543.94V654.27h-107a55.168,55.168,0,1,1,0-110.335Z" transform="translate(-84.46 -118.23)" opacity="0.1"/>
  <path id="Path_31" data-name="Path 31" d="M725.15,541V651.35h-107a55.168,55.168,0,1,1,0-110.335Z" transform="translate(-84.46 -118.23)" fill="#33323d"/>
  <circle id="Ellipse_4" data-name="Ellipse 4" cx="21.51" cy="21.51" r="21.51" transform="translate(517.31 459.37)" opacity="0.1"/>
  <circle id="Ellipse_5" data-name="Ellipse 5" cx="21.51" cy="21.51" r="21.51" transform="translate(518.77 456.45)" fill="#3f51b5"/>
  <path id="Path_32" data-name="Path 32" d="M910.88,540.05c.85,9.21-6.12,18.15-4.09,27.17.44,1.93,1.27,3.75,1.57,5.7.84,5.36-2.35,10.43-5.4,14.91l-26.2,38.44a23.868,23.868,0,0,1-3.74,4.62c-5,4.46-12.52,4-19.1,5.33a32.64,32.64,0,0,0-12.8,5.66A.82.82,0,0,0,841,643a11,11,0,0,0,9.52,4.47c.69.91,0,2.24-1,2.89-1.41,1-3.34,1.24-3.62,3.62a3.93,3.93,0,0,0,.48,2.4,7.45,7.45,0,0,0,4.58,3.19c9.07,2.77,18.87-2.1,25.66-8.73s11.66-15,18.32-21.75c3.69-3.73,7.88-6.93,11.68-10.55,7.58-7.22,13.47-16,19.16-24.79,1.71-2.65,3.43-5.37,4.15-8.44s.38-6.17,1.19-9.14c1.06-3.9,3.91-7,6.28-10.27,4.65-6.4,7.75-14.23,7.14-22.11s-5.5-15.67-12.94-18.35a11.5,11.5,0,0,0-7.25-.44c-3.05.94-5.3,3.46-7.38,5.87l-5,5.75a13.48,13.48,0,0,0-2.9,4.4,4.61,4.61,0,0,0,1,4.89" transform="translate(-84.46 -118.23)" fill="#fbbebe"/>
  <path id="Path_33" data-name="Path 33" d="M910.88,540.05c.85,9.21-6.12,18.15-4.09,27.17.44,1.93,1.27,3.75,1.57,5.7.84,5.36-2.35,10.43-5.4,14.91l-26.2,38.44a23.868,23.868,0,0,1-3.74,4.62c-5,4.46-12.52,4-19.1,5.33a32.64,32.64,0,0,0-12.8,5.66A.82.82,0,0,0,841,643a11,11,0,0,0,9.52,4.47c.69.91,0,2.24-1,2.89-1.41,1-3.34,1.24-3.62,3.62a3.93,3.93,0,0,0,.48,2.4,7.45,7.45,0,0,0,4.58,3.19c9.07,2.77,18.87-2.1,25.66-8.73s11.66-15,18.32-21.75c3.69-3.73,7.88-6.93,11.68-10.55,7.58-7.22,13.47-16,19.16-24.79,1.71-2.65,3.43-5.37,4.15-8.44s.38-6.17,1.19-9.14c1.06-3.9,3.91-7,6.28-10.27,4.65-6.4,7.75-14.23,7.14-22.11s-5.5-15.67-12.94-18.35a11.5,11.5,0,0,0-7.25-.44c-3.05.94-5.3,3.46-7.38,5.87l-5,5.75a13.48,13.48,0,0,0-2.9,4.4,4.61,4.61,0,0,0,1,4.89" transform="translate(-84.46 -118.23)" opacity="0.05"/>
  <path id="Path_34" data-name="Path 34" d="M930.71,777.15c-5.72,3.49-12.85,3.7-19.5,2.89-1.07-.13-2.34-.21-3,.62-1,1.2.18,3,1.4,3.93A28.849,28.849,0,0,0,923,790.1a88.169,88.169,0,0,0,13.1.87c12,.21,24,.41,35.81-1.31a5.069,5.069,0,0,0,2-.58,3.66,3.66,0,0,0,1.48-2.25c.81-3.08-.75-6.38-3.11-8.52s-5.39-3.33-8.35-4.48l-10.4-4.05c-2.44-.95-6.35-3.47-9-3.27C939.55,766.87,934.84,774.73,930.71,777.15Z" transform="translate(-84.46 -118.23)" fill="#3f3d56"/>
  <path id="Path_35" data-name="Path 35" d="M930.71,777.15c-5.72,3.49-12.85,3.7-19.5,2.89-1.07-.13-2.34-.21-3,.62-1,1.2.18,3,1.4,3.93A28.849,28.849,0,0,0,923,790.1a88.169,88.169,0,0,0,13.1.87c12,.21,24,.41,35.81-1.31a5.069,5.069,0,0,0,2-.58,3.66,3.66,0,0,0,1.48-2.25c.81-3.08-.75-6.38-3.11-8.52s-5.39-3.33-8.35-4.48l-10.4-4.05c-2.44-.95-6.35-3.47-9-3.27C939.55,766.87,934.84,774.73,930.71,777.15Z" transform="translate(-84.46 -118.23)" opacity="0.05"/>
  <path id="Path_36" data-name="Path 36" d="M938,639.09c-4.33,5.76-8.81,12.41-7.74,19.54.58,3.84,2.73,7.23,4.31,10.78,2.14,4.82,3.26,10,4.36,15.16,1.62,7.54,3.25,15.1,4.24,22.76,1.13,8.65-4.18,33.68-4.67,42.39-.12,2.1-.37,4.37-1.83,5.88-.57.6-1.33,1.08-1.59,1.86a3.18,3.18,0,0,0,.35,2.2c2.44,5.5,7.43,9.6,13,11.94s19,6.38,25.07,6.59a5,5,0,0,0,2.36-.31,4.59,4.59,0,0,0,1.82-2.09c4.35-8.32.17-37.9.23-47.29.06-7.83,1.91-15.61,1.57-23.43-.28-6.28-2-12.42-2.57-18.68-1-10.26.88-20.57,2.77-30.71,1.44-7.78,2.89-15.56,4.74-23.24,1.13-4.69,2.44-9.42,5-13.49,2-3.23,4.81-5.93,7.14-9a40.62,40.62,0,0,0,8-29.74c-.14-1-15,3.77-16.31,4.34a50.81,50.81,0,0,0-14.54,9.35c-3.44,3.28-6.15,7.66-9.16,11.33q-6.39,7.79-12.62,15.69Q944.82,629.95,938,639.09Z" transform="translate(-84.46 -118.23)" fill="#464353"/>
  <path id="Path_37" data-name="Path 37" d="M938,638.74c-4.33,5.76-8.81,12.42-7.74,19.54.58,3.85,2.73,7.24,4.31,10.79,2.14,4.81,3.26,10,4.36,15.15,1.62,7.55,3.25,15.11,4.24,22.76,1.13,8.66-4.18,33.68-4.67,42.39-.12,2.1-.37,4.38-1.83,5.89-.57.59-1.33,1.07-1.59,1.85a3.17,3.17,0,0,0,.35,2.2c2.44,5.51,7.43,9.6,13,12s19,4.49,25.07,4.69a5,5,0,0,0,2.36-.31,4.519,4.519,0,0,0,1.82-2.08c4.35-8.32.17-36,.23-45.4.06-7.84,1.91-15.61,1.57-23.44-.28-6.28-2-12.42-2.57-18.67-1-10.27.88-20.58,2.77-30.72,1.44-7.77,2.89-15.55,4.74-23.24,1.13-4.69,2.44-9.42,5-13.49,2-3.23,4.81-5.93,7.14-9a40.6,40.6,0,0,0,8-29.74c-.14-1-15,3.77-16.31,4.34a51.049,51.049,0,0,0-14.54,9.36c-3.44,3.27-6.15,7.65-9.16,11.32q-6.39,7.79-12.62,15.7Q944.82,629.59,938,638.74Z" transform="translate(-84.46 -118.23)" opacity="0.05"/>
  <circle id="Ellipse_6" data-name="Ellipse 6" cx="24.27" cy="24.27" r="24.27" transform="translate(781.09 345.46)" fill="#fbbebe"/>
  <path id="Path_38" data-name="Path 38" d="M911.68,486.94A31.43,31.43,0,0,0,931.83,501L930,507.65c-3.16,11.42-6.71,23.5-15.53,31.42,1-3.87-.28-8-2.46-11.36s-5.24-6-8.24-8.61L889.8,507a4.211,4.211,0,0,1-1-1.18,3.55,3.55,0,0,1,0-2.66c1.78-5.54,6.86-9,11-12.74a38.1,38.1,0,0,0,5.53-6.44C908.12,480,909.85,484,911.68,486.94Z" transform="translate(-84.46 -118.23)" fill="#fbbebe"/>
  <path id="Path_39" data-name="Path 39" d="M857.85,463.56,857.3,459c3.83,1,7.47-2.26,9.92-5.63s4.72-7.34,8.45-8.75c4.53-1.7,9.33,1,13.66,3.28A43.191,43.191,0,0,0,905,453a10.31,10.31,0,0,1,2.59.42c2.82,1,4.16,4.54,4.57,7.75s.3,6.62,1.69,9.48c1,2.17,2.86,3.78,4,5.92,3,5.74.1,13.59,3.23,19.22l-7.78-7.13c-.71-.65-1.71-1.33-2.5-.78-.62.44-.67,1.39-.92,2.15-.75,2.22-3.53,2.88-5.54,2s-3.48-2.79-5-4.53c-3.44-4.06-7.54-7.63-12.34-9.36a15.84,15.84,0,0,0-13,.86c-3.63,2.05-6.29,6.83-10.74,7-6.1.23-8.64-11.13-11.46-15.62a5.5,5.5,0,0,0,1.6-6.88C853.81,463.33,857.76,462.86,857.85,463.56Z" transform="translate(-84.46 -118.23)" fill="#464353"/>
  <ellipse id="Ellipse_7" data-name="Ellipse 7" cx="73.96" cy="10.69" rx="73.96" ry="10.69" transform="translate(683.65 524.8)" fill="#504f60"/>
  <path id="Path_42" data-name="Path 42" d="M905.7,654.24c-1.3-5.57-2.11-10.46-2.11-10.46s.3-6.06-2.42-10.61v-1.52h0v-11.2a38.183,38.183,0,0,1,2.83-5.87c2-3.52,0-16.42,0-16.42s-7.47-18.19-5.66-29.73S883,517.19,883,517.19a50.592,50.592,0,0,1,1.61-11.34,8.652,8.652,0,0,0,.22-2.38v-.2c-.26-7.61-6.28-21.87-6.28-21.87l.81-27.18s3.84-16-2.42-37.55c-2.19-7.51-3.59-13.52-4.48-18.16-.1-.52-.2-1-.28-1.51,12.89-2,22.74-3.6,22.74-3.6s-7.48-31.29-12.53-36.77-9.09-22.69-9.09-22.69-2.63-22.09,1.62-28.55,4.85-17.6,4.85-17.6,9.69-7,10.91-10.17,3.23-10.17,3.23-13.88-1.21-7-.81-9-2.83-9.39-1.21-12.91a9.471,9.471,0,0,0,.64-3.39.435.435,0,0,0,0-.1h0a47.513,47.513,0,0,0-.85-9.18,26.05,26.05,0,0,0-9.6-5.13l-.21-.84-.55-2.2a10.673,10.673,0,0,0-.95-.56v-.8l-.09-3.18,1.52-7.14c3-12.42-13.59-14.27-13.59-14.27a8.75,8.75,0,0,0-4.7-4.12c-3.33-1.17-.55,18.68,1,20,1.17,1,4.79,7.18,6.54,10.24h0l.28.5a7.006,7.006,0,0,0-.76.8l.63,4.31.1.66a17.887,17.887,0,0,0-2.65,4.51s3,3.32,2.43,7,.93,8.35,1,8.6c-.18-.21-2.31-2.51-4.44-1.95s-8.08,2.35-8.08,2.35-4.44.78-4,1.76-3,5.28-3,5.28l-11.94-11.32c-.12-.34-.25-.68-.35-1a27.528,27.528,0,0,1-1-5,27.311,27.311,0,0,0,3.82-1.21,8.24,8.24,0,0,0,3.3-2.12c1.21-1.43,1.44-3.37,1.93-5.15.94-3.48,3-6.57,4.43-9.88A32.12,32.12,0,0,0,855,201.52a11.6,11.6,0,0,0-1.83-5.2c-1.95-2.68-5.49-3.77-8.06-5.91s-4.23-5.41-7.23-7c-2.71-1.45-6-1.28-9.06-.78a48.829,48.829,0,0,0-16.93,6.16c-1.74,1-3.66,2.23-5.66,1.86-1.72-.31-3-1.68-4.08-3a.2.2,0,0,0-.08-.32,21.091,21.091,0,0,0-1.86,8.94,11.011,11.011,0,0,0,.06,1.43v.91h0a2.278,2.278,0,0,1-.09.63,4.549,4.549,0,0,1-1.12,1.61,10.8,10.8,0,0,0-1,1.33,1.65,1.65,0,0,1,.16-.49,7.11,7.11,0,0,0-1.24,3.77,3.85,3.85,0,0,0,.9,2.7,13,13,0,0,0,1.95,1.56,22.756,22.756,0,0,0-.36,4,23.11,23.11,0,0,0,11.26,19.71c.14.33.27.67.4,1,1.53,4,2.68,8.7,2.17,13a6.1,6.1,0,0,1-.14.94c-.05.31-.3.33-.43.5h0s-19.73.2-24.37-4-11.72,10.27-11.72,10.27-7.07,1.37-8.49,0-9.69-.19-9.69-.19a17.83,17.83,0,0,0-12.33-4.5,36.19,36.19,0,0,0-9-5h0l-.22-.08h0a10.08,10.08,0,0,0-4.45-.56s-9.7-8-12.53-12.32-16.3-20.27-16.36-20.34v-.77l-.15-2.32a8.313,8.313,0,0,1-1.21.1c-.07-.23-.17-.5-.27-.81a44.732,44.732,0,0,0-2.86-6.57s0-2.93.85-3.67-.35-11.49-.35-11.49-8.74-20.43-16.57-5.18c0,0-14.8,9.87-2.38,21.37,0,0,5,2.4,5.66,4.3.46,1.23,2.14,4.68,3.27,7l.51,1-.14.12.18,1.92.08.74c-2.34,1.33-3.93,2.65-3.54,3.64a21.87,21.87,0,0,1,1.41,5.28s17.18,21.52,19.4,30.71c0,0,46.07,27.38,61.22,29.33L766,300.5a108.933,108.933,0,0,0-.6,11.15c.2,2.93-1.82,16.23-1.82,16.23s-2.63,19.56-4.85,22.3-1.82,14.47-1.82,14.47a98.857,98.857,0,0,1-3,16.62c-2.22,7.43-.61,16.63-.61,16.63s-7.67,17.6,10.71,5.67c0,0,9-.56,19.42-.92v1c0,1.34,0,2.79-.07,4.31-.14,10.08-.2,24,.26,34.48.81,18.58,6.47,55.35,6.47,55.35V516.3a25.193,25.193,0,0,0-.54,5.28,34.36,34.36,0,0,0,5,18.49l1.42,12.32s3.32,8.12,3.38,13a6.814,6.814,0,0,1-.14,1.17,7.87,7.87,0,0,0-.16,1.89c-.19,5.6,3.18,19,3.18,19s.2,13.49,2.22,14.28c1.73.67-2.31,7.77-3.51,9.81a2.79,2.79,0,0,1-.07-.38l-.25.4a9.577,9.577,0,0,0-.63,3.42,4.9,4.9,0,0,0,2.24,4.74c3.84,2.35,5.9,4.3,2.64,5.08a33.935,33.935,0,0,0-3.56.75,1.543,1.543,0,0,0-.17-.45,2.14,2.14,0,0,0-1.33,2.36A10,10,0,0,0,801,632c3.23,7.24,5.47,10,5.47,10l1.55-.17a7.561,7.561,0,0,1-.9,1.67,6.439,6.439,0,0,1-2.28,2,7.06,7.06,0,0,1-2.77.95,7.8,7.8,0,0,0-5.72,2.78c-2,2.61-3.28,6.16.7,9.28l14.45,5s24.86,3.23,23.54-2.35-2.12-10.46-2.12-10.46a22.05,22.05,0,0,0-2-9.89,12.86,12.86,0,0,0-.88-1.46l.88-.09s1.82-12.33,4.24-14.67c.56-.54.69-1,.56-1.28.25-.67-.39-1.06-1.2-1.29l-.18.49a11.788,11.788,0,0,0-2.41-.27s-.81-6.45,1.82-8.8a2.49,2.49,0,0,0,.51-1.92,10.319,10.319,0,0,0-.28-2.63,1.29,1.29,0,0,1-.09.16c-1.32-5.86-5.8-15.17-5.8-15.17s-.2-5.86,1.42-8.21-.21-31.88-.21-31.88.61-14.27-1.21-20.92,2.22-14.48,2.22-14.48v-.52l-.23-2.25a.581.581,0,0,0,0,.14c-.41-3.78-1.18-10.63-1.75-13.79-.81-4.5.21-26,.21-26l3.63-9.2,6.47,15.85,6.87,21.12s3.4,4.46,3.48,9v.66a11.542,11.542,0,0,0-.08,1.41,12.559,12.559,0,0,0,2.09,7.53s1.82,10,4.65,12.51,2.83,7.43,2.83,7.43,3.43,14.48,5,17c1.36,2.14,1.43,8,1.42,9.83h0v.52s.48,5.18.46,9.52v1.55a.434.434,0,0,0,0-.11,15.064,15.064,0,0,1-.42,3.52l-.06.2a2.551,2.551,0,0,1,.07-.73,36.748,36.748,0,0,0-1,9c-.09,5.2.7,11.36,3.85,15,5.46,6.26,8.89,5.48,8.89,5.48s-2.62,7.82-5.86,9.39a1.52,1.52,0,0,0-.34.22,3.386,3.386,0,0,0-.08-.46,3.81,3.81,0,0,0-1,2.92c-.23,3.44,1.94,9,4,11.59a6.529,6.529,0,0,0,2.73,1.6,4.339,4.339,0,0,1-.51.31,10.871,10.871,0,0,1-1.11.53,5.829,5.829,0,0,1-1.65.43,7.7,7.7,0,0,0-5.72,2.78c-2,2.6-3.28,6.15.7,9.27l14.45,5S907,659.81,905.7,654.24Z" transform="translate(-84.46 -118.23)" fill="url(#linear-gradient)"/>
  <path id="Path_43" data-name="Path 43" d="M810.79,663.48l-14-5c-3.86-3.12-2.63-6.67-.68-9.28a7.48,7.48,0,0,1,5.54-2.78,6.64,6.64,0,0,0,2.67-.95,6.4,6.4,0,0,0,2.22-2,10.329,10.329,0,0,0,1.59-5.41s15.36-4.5,19.56,0a11.37,11.37,0,0,1,1.86,2.73,22.85,22.85,0,0,1,2,9.89s.78,4.88,2.05,10.46S810.79,663.48,810.79,663.48Z" transform="translate(-84.46 -118.23)" fill="#2d293d"/>
  <path id="Path_44" data-name="Path 44" d="M879.23,656.58l-14-5c-3.86-3.12-2.63-6.67-.68-9.27a7.39,7.39,0,0,1,5.53-2.78,5.187,5.187,0,0,0,1.6-.43,10.617,10.617,0,0,0,1.08-.53c3.91-2.15,3.81-7.43,3.81-7.43s15.35-4.5,19.56,0a11.077,11.077,0,0,1,1.47,2c2.63,4.55,2.34,10.62,2.34,10.62s.78,4.89,2,10.46S879.23,656.58,879.23,656.58Z" transform="translate(-84.46 -118.23)" fill="#2d293d"/>
  <path id="Path_45" data-name="Path 45" d="M827.7,638.05a11.37,11.37,0,0,1,1.86,2.73h0l-23,2.67a10.33,10.33,0,0,0,1.59-5.41S823.5,633.55,827.7,638.05Z" transform="translate(-84.46 -118.23)" opacity="0.1"/>
  <path id="Path_46" data-name="Path 46" d="M897.62,633.16v4.31c-3.58,5.89-20.89,4.6-25.92,1.65a10.624,10.624,0,0,0,1.08-.53c3.91-2.15,3.81-7.43,3.81-7.43s15.35-4.5,19.56,0a11.077,11.077,0,0,1,1.47,2Z" transform="translate(-84.46 -118.23)" opacity="0.1"/>
  <path id="Path_47" data-name="Path 47" d="M900.35,614.58a39.194,39.194,0,0,0-2.73,5.87V635.9c-3.92,6.45-24.25,4.3-27,.78S865,624,868.09,622.41s5.67-9.39,5.67-9.39-3.33.78-8.61-5.48-3.71-20.14-2.73-23.46,0-14.47,0-14.47.2-7.83-1.36-10.37-4.89-17-4.89-17,0-4.89-2.74-7.43-4.5-12.52-4.5-12.52a12.83,12.83,0,0,1-1.95-8.41c.58-4.89-3.33-10.17-3.33-10.17L837,482.58l-6.26-15.84-3.52,9.19s-1,21.51-.19,26,2,16.43,2,16.43-3.91,7.82-2.15,14.47S828,553.77,828,553.77s1.76,29.52.19,31.87-1.37,8.22-1.37,8.22,8,17.2,5.48,19.55-1.76,8.8-1.76,8.8,5.47,0,3.13,2.35-4.11,14.67-4.11,14.67L805.91,642s-2.16-2.73-5.29-10,.58-6.45,3.73-7.24,1.16-2.73-2.56-5.08-1.56-7.63-1.56-7.63,5.67-9.58,3.71-10.36-2.15-14.28-2.15-14.28-3.91-16-2.93-20.34-3.13-14.66-3.13-14.66l-1.37-12.32a33.9,33.9,0,0,1-4.3-23.28v-19s-5.48-36.76-6.26-55.34c-.5-11.9-.36-28.14-.2-38.27.1-5.68.2-9.45.2-9.45l84.48-8.8s-.08,3.9,1.53,12.55c.87,4.64,2.22,10.65,4.34,18.16,6.06,21.51,2.35,37.54,2.35,37.54l-.79,27.19s7.43,18.18,5.87,24.44A52.132,52.132,0,0,0,880,517.19s16.62,39.7,14.86,51.24,5.47,29.73,5.47,29.73S902.31,611.06,900.35,614.58Z" transform="translate(-84.46 -118.23)" fill="#464353"/>
  <path id="Path_48" data-name="Path 48" d="M852.05,512.7l25.72-3.43S863.2,524.14,852.05,512.7Z" transform="translate(-84.46 -118.23)" opacity="0.05"/>
  <path id="Path_49" data-name="Path 49" d="M874.05,484.14s.88,9.1-4.69,12.52C869.36,496.66,879.33,495.1,874.05,484.14Z" transform="translate(-84.46 -118.23)" opacity="0.1"/>
  <path id="Path_50" data-name="Path 50" d="M872.47,455.2s-21.5,17.7-29.32,16.23S872.47,455.2,872.47,455.2Z" transform="translate(-84.46 -118.23)" opacity="0.1"/>
  <path id="Path_51" data-name="Path 51" d="M820.17,521s-16.33,3.71-16.82,10.27S820.17,521,820.17,521Z" transform="translate(-84.46 -118.23)" opacity="0.1"/>
  <path id="Path_52" data-name="Path 52" d="M823.76,602.56s-23.07,4.3-16.52,7.23,17.31,5.28,17.31,5.28S832,615.46,823.76,602.56Z" transform="translate(-84.46 -118.23)" opacity="0.05"/>
  <g id="Group_1" data-name="Group 1" opacity="0.05">
    <path id="Path_53" data-name="Path 53" d="M802.58,614.45a4.55,4.55,0,0,1-2.11-3.34l-.24.41s-2.15,5.28,1.57,7.62c.42.27.83.54,1.2.8.69-.13,1.43-.23,2.14-.41C808.29,618.75,806.3,616.8,802.58,614.45Z" transform="translate(-84.46 -118.23)"/>
    <path id="Path_54" data-name="Path 54" d="M832.3,612.88c.64-.58.62-2.08.23-4a11.243,11.243,0,0,0-1.31,5.66A4.88,4.88,0,0,1,832.3,612.88Z" transform="translate(-84.46 -118.23)"/>
    <path id="Path_55" data-name="Path 55" d="M828.75,515.59a26.671,26.671,0,0,0-1.56,7.19,29,29,0,0,1,1.79-4.94Z" transform="translate(-84.46 -118.23)"/>
    <path id="Path_56" data-name="Path 56" d="M881.59,505.33a9.174,9.174,0,0,0,.21-2.14c-.29,1.46-.49,2.81-.64,4C881.29,506.58,881.43,506,881.59,505.33Z" transform="translate(-84.46 -118.23)"/>
    <path id="Path_57" data-name="Path 57" d="M828.2,585.12c.32-.48.5-2.1.58-4.35a14.769,14.769,0,0,0-1.13,5.49,5.254,5.254,0,0,1,.55-1.14Z" transform="translate(-84.46 -118.23)"/>
    <path id="Path_58" data-name="Path 58" d="M833,622a77.616,77.616,0,0,0-2.69,12l-23.65,2.73s-2.16-2.73-5.29-10a18.112,18.112,0,0,1-.67-1.72c-1.42.65-2,2.12-.12,6.41,3.13,7.24,5.3,10,5.3,10l23.65-2.74s1.76-12.32,4.1-14.67C834.83,622.88,834.09,622.29,833,622Z" transform="translate(-84.46 -118.23)"/>
    <path id="Path_59" data-name="Path 59" d="M801.8,586.88s.19,13.49,2.15,14.27h0c1-2.23,1.65-4.35.77-4.7-2-.78-2.15-14.28-2.15-14.28s-3.91-16-2.93-20.34-3.13-14.66-3.13-14.66l-1.37-12.32a33.9,33.9,0,0,1-4.3-23.28v-19s-5.48-36.76-6.26-55.34c-.5-11.9-.36-28.14-.2-38.27,0-1.83.06-3.45.09-4.82l-.67.07s-.11,3.76-.2,9.45c-.16,10.13-.31,26.37.2,38.26.78,18.58,6.25,55.35,6.25,55.35v19a33.92,33.92,0,0,0,4.31,23.27l1.36,12.32s4.11,10.36,3.13,14.67S801.8,586.88,801.8,586.88Z" transform="translate(-84.46 -118.23)"/>
    <path id="Path_60" data-name="Path 60" d="M871.42,631.46a22.87,22.87,0,0,1-3.75-9.29c-2.41,2.18.36,10.64,3,14,2.73,3.52,23.07,5.67,27-.79v-3.72C892.34,636.89,874,634.79,871.42,631.46Z" transform="translate(-84.46 -118.23)"/>
    <path id="Path_61" data-name="Path 61" d="M901.14,609.36a39.515,39.515,0,0,0-2.74,5.87V618a41.018,41.018,0,0,1,2-3.92,12,12,0,0,0,.86-4.85S901.17,609.32,901.14,609.36Z" transform="translate(-84.46 -118.23)"/>
    <path id="Path_62" data-name="Path 62" d="M872.62,612.45a38.644,38.644,0,0,0,1.93-4.65s-3.33.78-8.61-5.48c-3.84-4.55-4.06-13.15-3.51-18.77-1,3.33-2.55,17.21,2.73,23.47C868.61,611.11,871.22,612.19,872.62,612.45Z" transform="translate(-84.46 -118.23)"/>
    <path id="Path_63" data-name="Path 63" d="M862.42,569.08a104.212,104.212,0,0,1,.39,11.59,15.807,15.807,0,0,1,.4-1.81c1-3.33,0-14.47,0-14.47s.2-7.83-1.37-10.37S857,537,857,537s0-4.89-2.74-7.43-4.5-12.52-4.5-12.52a12.869,12.869,0,0,1-2-8.41c.59-4.89-3.32-10.17-3.32-10.17l-6.65-21.12-6.26-15.84-3.53,9.2s0,1.16-.12,3l2.86-7.47L837,482.05l6.65,21.12s3.91,5.28,3.32,10.17a12.871,12.871,0,0,0,2,8.41s1.76,10,4.5,12.52,2.73,7.43,2.73,7.43,3.33,14.47,4.89,17S862.42,569.08,862.42,569.08Z" transform="translate(-84.46 -118.23)"/>
  </g>
  <path id="Path_64" data-name="Path 64" d="M878.84,209.28l-1.47,7.14.09,3.18.06,2.34-8.16.84-.91-1.69h0c-1.69-3.06-5.2-9.28-6.33-10.24-1.51-1.26-4.2-21.12-1-19.94a8.53,8.53,0,0,1,4.54,4.11S881.73,196.86,878.84,209.28Z" transform="translate(-84.46 -118.23)" fill="#ffcdd3"/>
  <path id="Path_65" data-name="Path 65" d="M877.52,221.94l-8.16.84-.91-1.69h0a7.19,7.19,0,0,1,9-1.48Z" transform="translate(-84.46 -118.23)" opacity="0.1"/>
  <path id="Path_66" data-name="Path 66" d="M879.58,225.81l-10.76,2.49-.23-1.6-.61-4.31s4.26-5.68,10.42-1.42l.54,2.19Z" transform="translate(-84.46 -118.23)" fill="#3f51b5"/>
  <path id="Path_67" data-name="Path 67" d="M705.28,210.06l-11.49,6.16-1-2.16c-1.09-2.29-2.72-5.74-3.17-7-.68-1.9-5.47-4.3-5.47-4.3-12-11.49,2.3-21.37,2.3-21.37,7.58-15.25,16,5.18,16,5.18s1.18,10.77.35,11.49-.83,3.67-.83,3.67a45.136,45.136,0,0,1,2.77,6.57C705.09,209.39,705.28,210.06,705.28,210.06Z" transform="translate(-84.46 -118.23)" fill="#ffcdd3"/>
  <path id="Path_68" data-name="Path 68" d="M705.28,210.06l-11.49,6.16-1-2.16c1.62-1.36,7.37-6,9.26-5.81a13.84,13.84,0,0,0,2.72.07C705.09,209.39,705.28,210.06,705.28,210.06Z" transform="translate(-84.46 -118.23)" opacity="0.1"/>
  <path id="Path_69" data-name="Path 69" d="M706.45,213.53l-12.91,6.36-.26-2.77-.18-1.92s7.48-6.41,9.69-6.16a11.75,11.75,0,0,0,3.37,0l.15,2.32Z" transform="translate(-84.46 -118.23)" fill="#3f51b5"/>
  <path id="Path_70" data-name="Path 70" d="M847.55,256.71s-56.28,6.35-45.76,2.93c7.32-2.39,10.23-7,10.84-12.2.5-4.33-.62-9-2.09-13a56.68,56.68,0,0,0-5-10.17s43-23.66,34.41-2.15a34.682,34.682,0,0,0-2.44,10.19,28.788,28.788,0,0,0,1.11,10.32,30.73,30.73,0,0,0,8.93,14.08Z" transform="translate(-84.46 -118.23)" fill="#ffcdd3"/>
  <path id="Path_71" data-name="Path 71" d="M839.92,222.09a34.682,34.682,0,0,0-2.44,10.19c-4.05,3.41-8.49,3.18-14.2,3.18-4.38,0-9.24,1.06-12.74-1.05a56.68,56.68,0,0,0-5-10.17S848.53,200.58,839.92,222.09Z" transform="translate(-84.46 -118.23)" opacity="0.1"/>
  <circle id="Ellipse_8" data-name="Ellipse 8" cx="23.27" cy="23.27" r="23.27" transform="translate(714.79 72.19)" fill="#ffcdd3"/>
  <path id="Path_72" data-name="Path 72" d="M847.55,256.71s-56.28,6.35-45.76,2.93c7.32-2.39,10.23-7,10.84-12.2,2.8-3,8.43-5.23,12-6.39a16.84,16.84,0,0,1,10.2-.17,14.5,14.5,0,0,1,3.71,1.72A30.73,30.73,0,0,0,847.55,256.71Z" transform="translate(-84.46 -118.23)" opacity="0.1"/>
  <path id="Path_73" data-name="Path 73" d="M879.58,225.81l-10.76,2.49-.23-1.6a9.52,9.52,0,0,1,10.35-3.54Z" transform="translate(-84.46 -118.23)" opacity="0.1"/>
  <path id="Path_74" data-name="Path 74" d="M706.45,213.53l-12.91,6.36-.26-2.77a94.16,94.16,0,0,1,13-5.77Z" transform="translate(-84.46 -118.23)" opacity="0.1"/>
  <path id="Path_75" data-name="Path 75" d="M869.81,398.52C848,402,817,406.44,812.08,404.94c-4.09-1.24-17.13-1.11-28.48-.72.1-5.68.2-9.45.2-9.45l84.48-8.8S868.2,389.87,869.81,398.52Z" transform="translate(-84.46 -118.23)" opacity="0.1"/>
  <path id="Path_76" data-name="Path 76" d="M891.55,393.4s-71.77,12.32-79.47,10-47.25.19-47.25.19c-17.8,11.93-10.37-5.67-10.37-5.67s-1.56-9.19.59-16.62A101.54,101.54,0,0,0,758,364.66s-.39-11.74,1.76-14.48,4.7-22.29,4.7-22.29,1.95-13.3,1.76-16.23.58-11.15.58-11.15l2.55-13.69c-14.67-1.95-59.26-29.33-59.26-29.33-2.15-9.19-18.77-30.7-18.77-30.7a22.63,22.63,0,0,0-1.37-5.28c-1.17-3.13,16.43-9.39,16.43-9.39s13.1,16,15.84,20.34,12.12,12.32,12.12,12.32a9.43,9.43,0,0,1,4.3.56l.23.07h0a34.859,34.859,0,0,1,8.75,5,17,17,0,0,1,11.93,4.5s8-1.18,9.39.19,8.21,0,8.21,0,6.84-14.47,11.34-10.27,23.59,4,23.59,4c2.54-3.38,8.73-5.8,12.6-7a16.91,16.91,0,0,1,10.2-.17,12.938,12.938,0,0,1,4,2L850.49,255s3.32-4.31,2.93-5.28,3.91-1.76,3.91-1.76,5.67-1.76,7.82-2.35,4.12,1.74,4.3,1.95c-.07-.25-1.54-5-1-8.6s-2.35-7-2.35-7c6.84-16.82,22.29-2.74,22.29-2.74s1.76,9.19.2,12.71,1.56,10.95,1.17,12.91.79,5.28.79,9-2,10.75-3.13,13.88-10.56,10.17-10.56,10.17-.59,11.15-4.7,17.6S870.63,334,870.63,334s3.91,17.21,8.8,22.69S891.55,393.4,891.55,393.4Z" transform="translate(-84.46 -118.23)" fill="#3f3d56"/>
  <path id="Path_77" data-name="Path 77" d="M786.93,264.72s-2.15-6.45-4.11-7a45.237,45.237,0,0,1-5.67-2.54l1.26-2.41s7.34,2,8.52,4.17S786.93,264.72,786.93,264.72Z" transform="translate(-84.46 -118.23)" opacity="0.1"/>
  <path id="Path_78" data-name="Path 78" d="M747.62,250.45c-.39,2-17.8,3.71-17.8,3.71l8.8-8.82h0l.22.08h0a34.861,34.861,0,0,1,8.78,5.03Z" transform="translate(-84.46 -118.23)" opacity="0.1"/>
  <circle id="Ellipse_9" data-name="Ellipse 9" cx="1.56" cy="1.56" r="1.56" transform="translate(611.24 103.82)" fill="#575988"/>
  <circle id="Ellipse_10" data-name="Ellipse 10" cx="1.56" cy="1.56" r="1.56" transform="translate(613.24 106.95)" fill="#575988"/>
  <circle id="Ellipse_11" data-name="Ellipse 11" cx="1.56" cy="1.56" r="1.56" transform="translate(615.2 109.84)" fill="#575988"/>
  <circle id="Ellipse_12" data-name="Ellipse 12" cx="1.56" cy="1.56" r="1.56" transform="translate(617.25 112.96)" fill="#575988"/>
  <circle id="Ellipse_13" data-name="Ellipse 13" cx="1.27" cy="1.27" r="1.27" transform="translate(801.88 113.08)" fill="#575988"/>
  <circle id="Ellipse_14" data-name="Ellipse 14" cx="1.27" cy="1.27" r="1.27" transform="translate(802.08 115.97)" fill="#575988"/>
  <circle id="Ellipse_15" data-name="Ellipse 15" cx="1.27" cy="1.27" r="1.27" transform="translate(802.25 118.85)" fill="#575988"/>
  <path id="Path_79" data-name="Path 79" d="M787,317.72c-.19-.23,43.9,55.44,78.12,23.27C865.15,341,811.08,348.33,787,317.72Z" transform="translate(-84.46 -118.23)" opacity="0.1"/>
  <path id="Path_80" data-name="Path 80" d="M761.7,346.66s26.38.72,29.14,8.31v7.9a5.06,5.06,0,0,1-4.91,0c-2.66-1.44-18.61-9.54-24.23-5.64Z" transform="translate(-84.46 -118.23)" opacity="0.1"/>
  <path id="Path_81" data-name="Path 81" d="M762.19,346.66s25.23.69,27.87,7.93v7.52a4.84,4.84,0,0,1-4.7,0c-2.54-1.36-17.79-9.09-23.17-5.37Z" transform="translate(-84.46 -118.23)" fill="#3f3d56"/>
  <path id="Path_82" data-name="Path 82" d="M776.1,289.38a84.884,84.884,0,0,0,10.23,17.55,68.861,68.861,0,0,0,16,15.47S776.54,293,776.1,289.38Z" transform="translate(-84.46 -118.23)" opacity="0.1"/>
  <path id="Path_83" data-name="Path 83" d="M767.47,258.73s4.4,19,15.74,25.45Z" transform="translate(-84.46 -118.23)" opacity="0.1"/>
  <path id="Path_84" data-name="Path 84" d="M760.72,260.65c-.11-.35-3.91,15,14.62,23.53C775.34,284.18,767.47,281.51,760.72,260.65Z" transform="translate(-84.46 -118.23)" opacity="0.1"/>
  <path id="Path_85" data-name="Path 85" d="M875.91,247.91c-.29,0,9.14,6,11.71,8.8C887.62,256.71,881.48,247.51,875.91,247.91Z" transform="translate(-84.46 -118.23)" opacity="0.1"/>
  <path id="Path_86" data-name="Path 86" d="M816.23,234.78a3.67,3.67,0,0,0,4,3.63c7.09.44,14.48.75,21-2a8,8,0,0,0,3.2-2.12c1.16-1.43,1.39-3.37,1.86-5.15.92-3.48,2.88-6.57,4.29-9.88a33.1,33.1,0,0,0,2.31-17.75,12,12,0,0,0-1.78-5.19c-1.88-2.69-5.31-3.78-7.8-5.92s-4.09-5.41-7-7c-2.62-1.46-5.83-1.28-8.78-.78a46.09,46.09,0,0,0-16.38,6.15c-1.69,1-3.54,2.23-5.48,1.86-1.7-.32-2.94-1.75-4-3.09A21.661,21.661,0,0,0,800,197.69a4.361,4.361,0,0,1-.05,1.53,4.6,4.6,0,0,1-1.09,1.61c-1.75,2-2.84,5.25-1.11,7.31.75.89,1.91,1.38,2.64,2.29,1.31,1.63.87,4,.84,6.08a3.13,3.13,0,0,0,.52,2.06,3,3,0,0,0,2.87.69,7.81,7.81,0,0,1,3.06-.29,5.13,5.13,0,0,1,2.66,2C813.57,225.18,814.85,229.76,816.23,234.78Z" transform="translate(-84.46 -118.23)" fill="#2d293d"/>
  <g id="Group_2" data-name="Group 2" opacity="0.1">
    <path id="Path_87" data-name="Path 87" d="M845.26,232.52a8,8,0,0,1-3.2,2.12c-6.56,2.73-13.94,2.42-21,2a4.92,4.92,0,0,1-2.19-.49c-1.08-.63-1.49-1.95-1.82-3.15-1.38-5-2.65-9.59-5.93-13.76a5.14,5.14,0,0,0-2.66-2.05,8.2,8.2,0,0,0-3.06.29,3,3,0,0,1-2.87-.68,3.13,3.13,0,0,1-.52-2.06c0-2.1.47-4.45-.84-6.08-.73-.91-1.89-1.4-2.64-2.3a4.56,4.56,0,0,1-.45-4.66c-1.25,2-1.78,4.51-.33,6.23.75.89,1.91,1.38,2.64,2.29,1.31,1.64.87,4,.84,6.08a3.11,3.11,0,0,0,.51,2.06,3,3,0,0,0,2.88.69,7.81,7.81,0,0,1,3.06-.29,5.13,5.13,0,0,1,2.66,2c3.27,4.17,4.55,8.75,5.93,13.77A5,5,0,0,0,818,237.7a4.85,4.85,0,0,0,2.2.48c7.09.44,14.48.76,21-2a7.921,7.921,0,0,0,3.2-2.12,6.113,6.113,0,0,0,1-1.88A.494.494,0,0,1,845.26,232.52Z" transform="translate(-84.46 -118.23)"/>
    <path id="Path_88" data-name="Path 88" d="M800,198.61a3.421,3.421,0,0,0,.71-1.18,4.359,4.359,0,0,0,0-1.53,21.69,21.69,0,0,1,1.09-8.42l-.13-.15A21.5,21.5,0,0,0,800,197.47a7.224,7.224,0,0,1,0,1.14Z" transform="translate(-84.46 -118.23)"/>
  </g>
  <path id="Path_89" data-name="Path 89" d="M812.08,248.88s29.07,3.86,31.68-.51" transform="translate(-84.46 -118.23)" opacity="0.1"/>
  <path id="Path_90" data-name="Path 90" d="M868.59,236.85s16.16,0,19.71,6.08" transform="translate(-84.46 -118.23)" opacity="0.1"/>
  <path id="Path_91" data-name="Path 91" d="M959,777a25.63,25.63,0,0,1-17.45,6.52c-1.64,0-3.91.31-3.92,1.95a2.75,2.75,0,0,0,.48,1.34,16.05,16.05,0,0,0,9,7.07c3.5,1.06,7.24.88,10.89.69l10.65-.55c2-.11,4-.21,6-.46s4.18-.66,6.27-1a82,82,0,0,1,15.51-.72c1.38.05,3,0,3.82-1s.4-2.91.09-4.41c-.64-3.09,0-6.33-.59-9.43-1-5.44-5.71-9.61-10.87-11.58-4.8-1.82-13.3-3.91-17.84-.87C966.25,767.74,963.32,773.07,959,777Z" transform="translate(-84.46 -118.23)" fill="#3f3d56"/>
  <path id="Path_92" data-name="Path 92" d="M969.58,594.74c.94,4.47,5.27,7.89,5.39,12.45.11,3.66-2.5,6.73-4.38,9.86a65.777,65.777,0,0,0-4.47,10.12A154.586,154.586,0,0,1,953,653.27c-2.5,4-5.3,8.27-4.73,12.92a19.359,19.359,0,0,0,2.27,6.18l7.5,14.9a43.146,43.146,0,0,1,3.83,9.41c.65,2.83.71,5.76,1.09,8.64,1.18,9.14,5.47,18.34,2.93,27.2-.22.76-1,1.68-1.61,1.15,2.48,4.63,4.47,9.29,4.28,14.54-.1,2.75-.94,5.62.07,8.18.43,1.07,1.18,2.07,1.17,3.22a20.532,20.532,0,0,1-.43,2.21c-.21,2.11,1.73,3.87,3.74,4.54s4.2.62,6.23,1.23c3.9,1.17,6.69,4.53,10,6.86a21.291,21.291,0,0,0,11.52,3.75,2.9,2.9,0,0,0,1.7-.34,2.75,2.75,0,0,0,.94-2.06,11.44,11.44,0,0,0-4.12-9.94,4.5,4.5,0,0,1-1.53-1.6,3.859,3.859,0,0,1-.14-1.79,134.771,134.771,0,0,0-.44-24.6,37.357,37.357,0,0,1-.39-7.83c.21-2.18.87-4.34.63-6.51s-1.35-4.15-2-6.24c-1.16-3.72-.84-7.72-1-11.61-.2-6.76-1.75-13.4-3.29-20-.61-2.59-1.28-5.3-3.11-7.22-1.56-1.63-4.08-3.19-3.49-5.36a6.351,6.351,0,0,1,1.43-2.13,8.55,8.55,0,0,0,1.78-6.52,2.93,2.93,0,0,0,3.37-1.58c12.18-5.75,22-17.25,26.38-30a9.9,9.9,0,0,1,1.18-2.68c1.13-1.58,3.09-2.26,4.83-3.13,5.46-2.75,9.23-7.9,12.69-12.94,2-2.92,4-5.94,4.9-9.38a30.739,30.739,0,0,0,.67-6.77l.31-11.75a6.349,6.349,0,0,0-.22-2.3,5.749,5.749,0,0,0-1.27-1.86,22.59,22.59,0,0,0-12.46-6.72c-3.2-.57-6.47-.46-9.71-.73-6.28-.52-12.48-2.47-18.76-2-9.87.73-18.66,7.57-23.31,16.31C974.8,592,973.08,594.68,969.58,594.74Z" transform="translate(-84.46 -118.23)" fill="#464353"/>
  <path id="Path_93" data-name="Path 93" d="M914.78,518.34a13.13,13.13,0,0,1-.72,5.35c-.77,1.64-2.7,2.92-4.39,2.25.51-1.15-.84-2.46-2.1-2.32A3.93,3.93,0,0,0,904.8,526a8.85,8.85,0,0,0-.8,5.43c.4,2.3,1.73,4.51,1.38,6.82-.28,1.92-1.69,3.83-.94,5.61a9.088,9.088,0,0,0,1.81,2.17,6.12,6.12,0,0,1-.65,8.4l18.92.38c-.69,3.16.73,6.39,2.35,9.2a58,58,0,0,0,43.24,28.23,3.76,3.76,0,0,0-.91,5.75c1.54,1.53,4.15,1.34,6.08.35s3.44-2.63,5.2-3.9a16,16,0,0,1,10.69-2.88c2.37.23,4.67,1,7.05,1.12,7,.37,13-4.67,19.74-6.73,4.91-1.51,10.48-1.51,14.6-4.58,1.78-1.32,3.24-3.49,2.72-5.63a9.41,9.41,0,0,0-2-3.31c-2.37-3.07-3.77-6.76-5.47-10.25a61.313,61.313,0,0,0-13.67-18.32,122.3,122.3,0,0,0-13.56-10.28,23.124,23.124,0,0,0-3.66-2.21c-1.66-.73-3.5-1.08-5-2-2.22-1.4-3.5-3.87-5.21-5.86-3.75-4.38-9.51-6.39-14.13-9.83-3.1-2.31-5.84-5.35-9.54-6.46-1.8-.55-3.71-.59-5.51-1.13-4.09-1.24-7.07-4.87-11.08-6.34-3.17-1.16-6.67-.86-10-1.27A23.41,23.41,0,0,1,926,494.5a12.4,12.4,0,0,0-3.33-1.94c-5.07-1.54-5.48,7.9-6,11.17C916,508.59,914.78,513.42,914.78,518.34Z" transform="translate(-84.46 -118.23)" fill="#3f51b5"/>
  <path id="Path_94" data-name="Path 94" d="M919.72,550c.85,9.22-6.11,18.15-4.08,27.18.43,1.92,1.26,3.75,1.56,5.7.85,5.35-2.35,10.42-5.4,14.9l-26.2,38.45a24.179,24.179,0,0,1-3.74,4.62c-5,4.45-12.52,4-19.1,5.32a33,33,0,0,0-12.8,5.66.83.83,0,0,0-.16,1.15,11,11,0,0,0,9.51,4.47c.69.9,0,2.24-.95,2.89-1.4,1-3.34,1.23-3.62,3.62a4,4,0,0,0,.48,2.4,7.47,7.47,0,0,0,4.58,3.18c9.07,2.78,18.87-2.1,25.66-8.73s11.66-15,18.32-21.74c3.69-3.74,7.88-6.93,11.68-10.55,7.58-7.23,13.48-16,19.16-24.79,1.71-2.65,3.44-5.37,4.15-8.44s.38-6.18,1.19-9.15c1.06-3.89,3.91-7,6.28-10.26,4.65-6.4,7.76-14.23,7.14-22.12s-5.5-15.67-12.94-18.35a11.63,11.63,0,0,0-7.25-.44c-3.05.94-5.3,3.46-7.38,5.88l-5,5.74A13.389,13.389,0,0,0,918,551a4.61,4.61,0,0,0,1,4.9" transform="translate(-84.46 -118.23)" fill="#fbbebe"/>
  <path id="Path_95" data-name="Path 95" d="M933,512.18c-3.44.2-7.23.54-9.66,3A13.752,13.752,0,0,0,920.9,519c-2.36,4.81-4.66,9.84-4.83,15.2-.14,4.28,1.1,8.47,1.75,12.7.54,3.52-.83,7.11-1.09,10.67,4.27-1.31,9.91-3.09,13.78-5.3,2.64-1.51,5.19-3.23,8.07-4.19,4.11-1.37,11,1,14.91,2.9.21-2.74-1.85-7.52-1.63-10.27a11.47,11.47,0,0,1,.61-3.4,20.63,20.63,0,0,1,2.07-3.29,13.46,13.46,0,0,0-1.21-15.77c-3.47-3.9-8.9-5.36-14.08-6a60.9,60.9,0,0,0-9.83-.34" transform="translate(-84.46 -118.23)" fill="#3f51b5"/>
</svg>
